<?xml version="1.0" encoding="UTF-8"?>
<!-- Generic mana symbol (D11): traced from Examples/K3uIZAk.jpeg. Used only for
     the grouped generic cost in the stat bar; rules text keeps the number symbols. -->
<svg xmlns="http://www.w3.org/2000/svg" viewBox="0 0 100 100" width="100" height="100">
  <circle cx="50" cy="50" r="50" fill="#CAC5C0"/>
  <path fill="#0D0F0F" fill-rule="evenodd" d="M50,18L49.55,20.2L48.69,23.03L43.13,36.33L42.28,38.87L41.43,42.27L40.85,46.23L40.81,51.61L41.17,54.72L41.97,57.83L41.79,58.06L40.94,57.65L39.16,55.85L38.28,54.15L37.72,52.17L37.45,48.49L38.23,41.42L38.19,36.33L37.37,31.24L36.13,27.37L36,27.84L35.94,32.08L35.63,34.35L35.1,36.61L33.94,39.44L30.73,44.82L29.87,46.51L29.02,48.78L28.45,51.32L28.22,54.15L28.4,56.7L29.03,58.68L30.27,60.94L27.93,60.03L25.95,59.78L23.12,59.99L21.43,60.38L21.72,60.66L23.4,61.41L24.25,62.04L26.3,64.05L28.6,67.17L32.09,73.11L33.59,74.94L35.85,77.1L38.4,78.84L42.08,80.53L46.32,81.66L50,82L53.68,81.66L57.92,80.54L61.6,78.84L64.14,77.1L66.41,74.94L67.9,73.11L71.39,67.17L73.69,64.05L75.74,62.03L76.59,61.4L78.27,60.66L78.57,60.38L76.88,59.99L74.05,59.78L72.07,60.03L69.73,60.94L70.96,58.68L71.59,56.7L71.78,54.15L71.55,51.32L70.98,48.78L70.12,46.51L69.27,44.82L66.06,39.44L64.9,36.61L64.36,34.35L64.05,32.08L64,27.84L63.86,27.37L62.63,31.24L62.12,33.78L61.81,36.33L61.77,41.42L62.55,48.49L62.27,52.17L61.71,54.15L60.83,55.85L59.05,57.65L58.2,58.07L58.03,57.83L58.82,54.72L59.18,51.61L59.15,46.23L58.57,42.27L57.72,38.87L56.87,36.33L51.31,23.03L50.45,20.2Z"/>
</svg>
